<?xml version="1.0" encoding="utf-8"?>
<!-- Generator: Adobe Illustrator 23.0.3, SVG Export Plug-In . SVG Version: 6.00 Build 0)  -->
<svg version="1.1" id="Ebene_1" xmlns="http://www.w3.org/2000/svg" xmlns:xlink="http://www.w3.org/1999/xlink" x="0px" y="0px"
	 viewBox="0 0 742.892578 308.37735" style="enable-background:new 0 0 742.892578 308.37735;" xml:space="preserve">
<style type="text/css">
	.st0{fill:#CC9C47;}
	.st1{fill:#FFFFFF;}
	.st2{fill:none;stroke:#FFFFFF;stroke-width:1.8;}
	.st3{fill:#CC9D4B;}
</style>
<g>
	<path class="st0" d="M625.565491,181.452499"/>
	<path class="st1" d="M489.051788,198.338623h13.348633v-33.613632l30.753021-54.352745h-6.199219l-27.175354,47.916496
		l-27.0578-47.916496h-15.017975l31.348694,54.830879V198.338623z M390.953918,158.169235v-43.02803h17.163391
		c15.972137,0,21.932281,5.482056,21.932281,21.217194c0,16.089676-5.960144,21.810837-21.217163,21.810837H390.953918z
		 M429.571533,198.338623h14.302795l-21.693237-36.591721c13.350616-3.099609,21.3367-11.563751,21.3367-25.388504
		c0-18.237099-13.468201-25.986153-34.44632-25.986153h-31.111633v87.966377h12.99408v-35.280975h17.519958L429.571533,198.338623z
		 M322.417847,199.292816c24.314819,0,33.73114-9.774887,33.73114-34.567825v-54.352745h-5.601593v54.711296
		c0,20.143555-6.316742,28.129578-25.627563,28.129578c-18.117554,0-23.719177-8.225128-23.719177-28.129578v-54.711296h-13.46817
		v54.591789C287.732483,188.683243,299.055237,199.292816,322.417847,199.292816 M201.909531,115.141205h48.035995
		l-49.822861,78.430527v4.766891h66.39064v-4.766891H215.61673l49.944397-78.430527v-4.768959h-63.651596V115.141205z
		 M143.028885,119.788643l17.16539,46.964256H126.10453L143.028885,119.788643z M109.297722,198.338623h5.36454l9.653412-26.818771
		h37.665451l9.774933,26.818771h13.826736l-32.302887-87.966377H141.24202L109.297722,198.338623z"/>
	<path class="st2" d="M541.259888,152.194641"/>
	<path class="st3" d="M550.568726,156.252457l72.930481,28.079773c6.139465-6.571762,10.713135-15.625534,11.121521-28.079773
		H550.568726z M544.066711,157.607086l43.733215,43.733154c0,0,19.061768-1.900436,32.868591-14.241058L544.066711,157.607086z
		 M544.054688,151.308228l76.562012-29.47818c-13.802856-12.30677-32.818787-14.264946-32.818787-14.264946L544.054688,151.308228z
		 M550.578674,152.652832h84.042053c-0.410339-12.436264-5.005981-21.486084-11.167358-28.057838L550.578674,152.652832z"/>
</g>
</svg>
